<?xml version="1.0" standalone="no"?>
<!DOCTYPE svg PUBLIC "-//W3C//DTD SVG 20010904//EN"
 "http://www.w3.org/TR/2001/REC-SVG-20010904/DTD/svg10.dtd">
<svg version="1.0" xmlns="http://www.w3.org/2000/svg"
 width="1120.000000pt" height="1120.000000pt" viewBox="0 0 1120.000000 1120.000000"
 preserveAspectRatio="xMidYMid meet">
<metadata>
Created by potrace 1.14, written by Peter Selinger 2001-2017
</metadata>
<g transform="translate(0.000000,1120.000000) scale(0.100000,-0.100000)"
fill="#000000" stroke="none">
<path d="M6800 8899 c-146 -18 -243 -62 -326 -146 -161 -162 -158 -426 6 -576
68 -62 135 -94 310 -148 230 -70 277 -106 267 -202 -4 -44 -10 -56 -42 -83
-73 -64 -215 -62 -291 4 -24 20 -54 74 -54 95 0 12 -21 15 -114 15 -62 -1
-118 2 -125 6 -6 4 -11 3 -11 -1 0 -5 -18 -8 -41 -6 l-40 2 6 -57 c8 -76 63
-187 119 -242 67 -67 162 -114 276 -137 77 -16 272 -2 340 24 8 4 17 7 20 7 3
1 31 14 63 30 249 122 308 466 111 652 -69 65 -156 108 -343 168 -79 26 -156
53 -170 60 -81 43 -95 123 -34 199 27 34 106 59 160 51 42 -6 103 -42 103 -61
0 -6 5 -13 11 -15 6 -2 12 -18 14 -36 1 -18 5 -35 8 -39 5 -5 163 -7 300 -4
28 1 28 1 23 54 -8 66 -12 79 -47 153 -77 160 -288 259 -499 233z"/>
<path d="M4305 8875 c-185 -46 -359 -165 -452 -311 -46 -71 -118 -245 -107
-257 3 -2 0 -17 -6 -32 -11 -29 -15 -190 -5 -235 14 -68 19 -96 20 -102 0 -3
3 -10 8 -14 4 -4 7 -13 7 -21 0 -19 39 -100 78 -162 84 -133 234 -252 382
-301 37 -12 44 -14 123 -29 62 -11 209 -7 267 9 97 25 223 82 257 116 8 8 17
14 21 14 11 0 94 81 133 130 20 25 51 70 68 101 35 62 83 197 76 210 -3 4 -2
10 3 13 10 6 15 73 15 166 -1 63 -5 97 -18 150 -9 37 -11 42 -23 73 -7 16 -12
31 -12 34 0 13 -37 84 -74 138 -97 147 -248 253 -427 303 -78 22 -260 25 -334
7z m260 -307 c17 -5 35 -10 40 -11 29 -6 105 -60 145 -104 106 -112 140 -275
95 -448 -24 -91 -124 -216 -196 -245 -19 -8 -36 -17 -39 -21 -10 -14 -105 -27
-174 -24 -89 4 -133 20 -211 78 -63 45 -129 136 -139 192 -3 14 -7 29 -10 34
-9 13 -18 81 -18 126 0 204 118 374 291 422 52 14 171 15 216 1z"/>
<path d="M2692 8157 l3 -720 150 -1 c83 -1 156 0 163 2 9 3 12 94 12 408 0
222 3 404 8 404 4 0 14 -15 21 -32 8 -18 33 -64 56 -103 23 -38 45 -77 49 -85
4 -8 12 -24 19 -35 7 -11 48 -83 91 -160 43 -77 89 -157 102 -177 13 -21 24
-39 24 -42 0 -2 17 -33 38 -67 21 -35 43 -75 50 -89 13 -25 13 -25 152 -24 77
0 142 3 145 5 2 3 5 73 6 156 1 143 -1 153 -23 189 -23 37 -48 97 -78 189 -8
22 -15 92 -16 155 -3 104 1 141 31 264 2 11 23 57 45 102 l41 83 -3 148 -3
148 -163 1 -162 1 0 -311 c0 -171 1 -354 0 -406 l0 -95 -91 160 c-50 88 -103
183 -118 210 -158 283 -236 422 -243 430 -5 6 -73 10 -159 11 l-149 1 2 -720z"/>
<path d="M5159 8835 c-4 -240 0 -303 24 -356 24 -52 51 -119 53 -129 0 -3 4
-21 8 -40 32 -151 20 -300 -35 -437 -16 -41 -29 -80 -29 -87 0 -7 17 -47 37
-87 41 -83 121 -170 196 -213 55 -33 185 -79 198 -70 5 3 9 1 9 -4 0 -9 176
-8 228 2 59 12 141 47 201 87 141 94 220 236 227 409 2 47 4 87 5 90 1 3 0 10
-1 15 -5 19 -1 125 5 134 3 5 1 12 -4 15 -5 4 -6 18 -2 34 5 15 6 36 4 47 -2
11 -4 38 -3 60 1 22 2 47 1 55 -1 8 -1 24 -1 35 1 11 1 26 1 33 -1 12 -1 33
-1 55 0 6 0 31 -2 54 -1 24 1 45 4 48 3 3 2 20 -1 38 -4 18 -5 43 -1 57 4 14
5 34 3 45 -3 11 -4 31 -3 45 2 27 2 33 -2 70 l-3 25 -165 0 -165 0 -1 -491
c-1 -271 -5 -497 -8 -503 -4 -6 -5 -11 -1 -11 12 0 -28 -63 -58 -91 -62 -57
-175 -70 -267 -31 -59 25 -107 95 -116 173 -4 30 -7 257 -7 505 l0 451 -164
-1 -163 -1 -1 -30z"/>
<path d="M2755 7135 c-5 -2 -44 -11 -85 -20 -41 -10 -79 -20 -85 -24 -5 -4
-26 -14 -45 -21 -19 -8 -54 -26 -77 -42 -23 -15 -45 -28 -49 -28 -14 0 -159
-157 -179 -193 -11 -20 -23 -37 -27 -37 -5 0 -8 -6 -8 -14 0 -8 -11 -36 -24
-63 -38 -78 -59 -178 -60 -288 0 -118 6 -161 40 -265 3 -8 5 -16 4 -18 -2 -7
76 -142 103 -177 95 -126 256 -234 402 -271 6 -1 24 -5 40 -9 37 -9 229 -11
270 -3 91 18 225 70 233 90 2 4 9 8 16 8 18 0 65 38 148 123 85 87 155 210
185 327 17 69 23 251 10 327 -11 65 -54 177 -95 246 -45 77 -158 193 -233 240
-61 39 -167 85 -213 93 -16 3 -34 8 -39 11 -10 6 -213 13 -232 8z m200 -320
c124 -46 198 -111 249 -219 19 -39 34 -78 35 -86 8 -74 8 -185 0 -221 -30
-136 -126 -254 -244 -301 -34 -13 -148 -35 -165 -31 -3 1 -25 4 -50 8 -59 8
-143 47 -189 87 -144 125 -187 355 -104 547 10 23 21 41 25 41 5 0 8 6 8 13 0
22 112 128 140 133 3 0 12 4 20 7 63 28 103 35 175 32 44 -1 89 -6 100 -10z"/>
<path d="M8345 7109 c-22 -4 -43 -5 -47 -3 -4 2 -9 0 -13 -6 -3 -5 -13 -10
-22 -10 -8 0 -45 -14 -82 -31 -92 -44 -208 -165 -212 -224 0 -2 -6 -19 -13
-37 -19 -45 -18 -169 2 -226 33 -100 105 -180 203 -229 62 -30 143 -61 184
-69 50 -10 182 -58 215 -79 37 -23 71 -78 66 -105 -8 -47 -30 -88 -59 -107
-37 -25 -107 -42 -152 -36 -79 11 -165 79 -165 131 0 12 -3 22 -7 23 -37 5
-296 3 -304 -2 -19 -11 -3 -105 29 -172 30 -63 96 -140 142 -166 106 -61 195
-85 320 -84 270 2 458 127 505 337 20 89 7 196 -33 270 -33 61 -118 137 -191
171 -82 39 -178 74 -185 68 -3 -4 -6 -2 -6 4 0 5 -6 10 -12 10 -34 0 -178 57
-208 82 -27 22 -34 36 -35 67 -3 52 19 94 63 123 45 29 122 35 174 13 40 -18
77 -66 80 -105 1 -15 5 -27 8 -28 3 -1 74 -2 159 -3 l154 -2 -6 64 c-4 35 -12
71 -18 78 -6 8 -9 14 -5 14 3 0 -6 23 -21 51 -52 96 -140 165 -253 199 -70 22
-191 30 -255 19z"/>
<path d="M1518 7105 c-2 -2 -18 -7 -36 -10 -43 -7 -111 -34 -144 -57 -14 -10
-29 -18 -33 -18 -19 0 -118 -117 -142 -167 -24 -52 -27 -70 -27 -168 -1 -102
1 -114 28 -167 16 -32 33 -58 38 -58 4 0 8 -7 8 -15 0 -8 3 -15 8 -15 4 0 24
-15 46 -34 48 -43 181 -108 249 -121 10 -2 55 -16 100 -30 149 -46 202 -91
199 -166 -2 -45 -32 -96 -66 -108 -11 -5 -24 -8 -27 -7 -3 0 -12 -4 -20 -11
-20 -16 -128 -9 -166 11 -48 24 -79 57 -94 99 l-13 37 -156 0 -156 0 2 -27 c9
-119 52 -204 141 -283 87 -77 187 -111 339 -116 177 -6 314 39 421 139 69 65
132 216 105 250 -18 21 -62 165 -68 223 -7 59 -15 71 -76 117 -56 43 -141 80
-295 130 -157 51 -180 61 -206 90 -54 62 -17 169 69 197 112 37 205 -13 229
-124 4 -20 9 -26 16 -19 6 6 24 7 44 3 19 -4 37 -5 40 -2 7 7 164 4 176 -4 5
-3 9 -1 9 5 0 6 7 8 16 4 14 -5 15 1 10 48 -8 77 -8 79 -44 152 -51 104 -148
176 -281 211 -48 12 -233 21 -243 11z"/>
<path d="M7020 7092 l-96 -3 2 -692 c1 -381 2 -694 3 -697 2 -8 891 -4 899 4
4 4 7 67 7 139 l1 132 -286 -1 c-157 0 -290 1 -296 4 -8 2 -11 45 -10 134 l1
131 108 1 c59 1 107 -3 107 -7 0 -5 5 -5 12 -1 6 4 71 7 143 7 l132 -1 0 143
0 142 -226 1 c-124 0 -238 1 -253 1 l-26 1 1 140 c0 120 3 140 16 141 9 1 138
2 286 3 l270 1 2 138 2 137 -62 0 c-527 4 -656 5 -737 2z"/>
<path d="M3702 7076 c-4 -6 -7 -20 -8 -31 -2 -42 -16 -170 -19 -175 -1 -3 -6
-36 -10 -73 -3 -37 -8 -78 -10 -89 -11 -54 -18 -137 -15 -173 5 -66 3 -238 -3
-276 -3 -20 -15 -61 -26 -92 -11 -32 -16 -57 -13 -57 4 0 1 -4 -7 -9 -7 -5
-14 -21 -16 -37 -3 -28 -11 -99 -19 -159 -2 -16 -7 -55 -10 -85 -4 -30 -9 -71
-12 -91 l-5 -36 163 1 163 1 12 95 c6 52 14 124 18 160 4 36 8 67 10 70 1 3 6
37 9 75 7 66 10 93 21 183 6 52 17 165 18 180 1 27 16 9 46 -58 18 -38 32 -72
31 -76 -1 -4 3 -10 8 -13 5 -3 28 -46 51 -96 23 -49 72 -151 108 -226 l66
-136 120 1 121 1 23 45 c22 43 171 353 243 507 19 40 36 71 38 68 2 -2 5 -21
7 -42 2 -21 6 -60 9 -88 3 -27 8 -71 11 -96 3 -26 7 -64 10 -85 2 -22 7 -61
10 -89 3 -27 10 -86 15 -130 5 -44 12 -107 16 -140 6 -52 10 -82 13 -106 1 -3
74 -6 164 -5 100 1 161 5 161 11 -1 6 -5 37 -9 70 -3 33 -9 76 -11 95 -9 66
-12 95 -19 150 -3 30 -8 73 -11 95 -4 22 -8 58 -10 80 -3 22 -6 51 -8 65 -1
14 -6 57 -10 95 -4 39 -10 81 -12 95 -2 14 -7 42 -9 63 -3 20 -7 56 -10 80 -4
23 -8 62 -10 87 -3 25 -7 61 -10 80 -2 19 -7 60 -10 90 -3 30 -8 66 -10 80 -5
23 -16 121 -18 146 0 8 -42 12 -137 12 l-137 1 -21 -47 c-11 -26 -89 -195
-172 -377 -83 -181 -162 -354 -176 -382 -13 -29 -27 -53 -31 -53 -5 0 -14 15
-22 33 -8 17 -38 84 -68 147 -30 63 -64 138 -76 165 -11 28 -24 52 -27 55 -4
3 -14 23 -22 45 -9 22 -41 92 -70 155 -30 63 -69 147 -88 187 l-33 72 -129 -1
c-82 0 -131 -5 -136 -12z"/>
<path d="M5349 7083 c0 -5 -2 -17 -4 -28 -5 -29 -23 -180 -30 -250 -4 -33 -8
-71 -11 -85 -4 -27 -11 -80 -18 -145 -3 -22 -7 -56 -10 -75 -3 -19 -8 -60 -11
-90 -3 -30 -7 -68 -10 -85 -3 -16 -7 -48 -9 -70 -2 -22 -8 -67 -12 -100 -8
-71 -8 -84 0 -150 4 -27 9 -72 12 -100 3 -27 8 -61 10 -75 1 -14 5 -47 8 -74
3 -27 8 -52 12 -55 8 -8 224 -10 226 -2 0 3 2 17 4 31 6 57 15 127 19 150 2
14 6 50 10 80 7 62 11 100 21 180 3 30 8 66 9 80 2 14 7 52 10 85 4 33 9 69
10 80 2 11 4 35 4 53 1 17 4 32 9 32 4 0 20 -28 36 -63 26 -57 131 -276 227
-473 l40 -81 120 0 120 0 69 141 c166 344 220 459 220 467 0 5 5 9 10 9 6 0
10 -12 11 -27 0 -16 2 -37 4 -48 2 -11 7 -49 10 -85 4 -36 9 -76 11 -90 3 -14
7 -47 9 -75 3 -27 7 -66 10 -85 2 -19 7 -63 11 -98 3 -35 7 -72 9 -83 2 -11 7
-46 10 -77 3 -31 8 -66 10 -77 2 -11 4 -23 4 -26 1 -3 73 -5 162 -5 l160 -1
-6 61 c-3 34 -8 72 -10 86 -2 14 -6 48 -9 75 -4 28 -8 66 -11 85 -3 19 -7 60
-10 90 -3 30 -8 70 -10 88 -11 76 -14 100 -20 152 -3 30 -8 71 -10 90 -3 19
-7 58 -10 85 -3 28 -8 61 -10 75 -2 14 -7 50 -10 80 -3 30 -8 66 -10 80 -2 14
-7 52 -10 85 -4 33 -9 74 -11 90 -2 17 -6 53 -9 80 -11 102 2 93 -148 94
l-134 0 -41 -87 c-39 -83 -71 -154 -121 -267 -13 -27 -27 -57 -32 -65 -5 -8
-12 -22 -15 -30 -3 -8 -14 -33 -24 -55 -37 -80 -83 -182 -122 -270 -23 -49
-42 -92 -44 -94 -4 -4 -131 260 -139 289 0 3 -18 41 -40 85 -78 163 -174 370
-176 380 0 2 -13 28 -27 57 l-27 53 -133 3 c-72 1 -132 -1 -133 -5z"/>
<path d="M10426 6499 c-36 -29 -54 -66 -60 -130 -3 -30 -8 -76 -11 -104 -3
-27 -8 -68 -10 -90 -2 -22 -7 -57 -10 -78 -3 -22 -7 -69 -10 -105 -3 -37 -7
-78 -9 -92 -3 -14 -7 -52 -10 -85 -3 -33 -8 -78 -11 -100 -3 -22 -8 -58 -10
-80 -2 -22 -7 -71 -11 -110 -4 -38 -8 -82 -8 -97 -1 -16 -3 -28 -6 -28 -3 0
-5 -15 -5 -32 -1 -29 -6 -87 -20 -213 -11 -101 -23 -218 -30 -295 -3 -30 -8
-80 -11 -110 -7 -60 -8 -70 -19 -175 -4 -38 -9 -83 -11 -100 -2 -16 -6 -59 -9
-95 -3 -36 -7 -81 -10 -100 -5 -38 -12 -102 -21 -190 -7 -79 -13 -129 -18
-175 -2 -22 -7 -74 -11 -115 -4 -41 -9 -86 -11 -100 -1 -14 -5 -50 -8 -80 -3
-30 -8 -73 -10 -95 -5 -44 -14 -136 -21 -204 -5 -54 15 -102 53 -128 21 -14
47 -18 122 -18 131 0 160 23 175 135 3 25 8 52 11 61 3 10 6 30 9 45 2 16 9
54 15 84 6 30 13 64 14 75 6 40 27 151 36 195 5 25 11 59 14 75 4 28 33 187
42 230 3 11 6 31 8 45 2 14 13 75 25 135 11 61 22 121 25 135 5 30 74 407 80
435 5 25 20 107 22 120 1 6 3 12 4 15 1 3 4 16 5 30 2 26 6 47 30 170 8 41 17
91 20 110 3 19 14 80 25 135 10 55 22 120 25 145 4 25 8 52 10 60 2 8 7 40 11
70 8 58 10 68 13 73 1 1 4 16 6 32 14 108 24 173 32 198 3 11 7 38 9 60 5 53
12 102 15 102 1 0 3 9 4 20 7 57 17 113 24 140 4 17 7 53 7 82 -1 53 -24 90
-70 115 -10 5 -107 12 -216 14 -188 4 -198 3 -224 -17z"/>
<path d="M3565 5333 c-44 -8 -87 -15 -95 -17 -8 -1 -28 -6 -45 -10 -256 -69
-474 -194 -655 -376 -76 -76 -190 -220 -190 -238 0 -6 -4 -12 -9 -14 -12 -4
-83 -140 -119 -228 -36 -90 -57 -157 -73 -235 -1 -5 -6 -26 -10 -45 -28 -119
-32 -450 -6 -520 3 -8 5 -22 5 -30 0 -26 41 -172 69 -245 15 -38 28 -72 28
-75 4 -22 131 -242 164 -283 95 -119 185 -211 271 -277 25 -19 47 -38 48 -42
2 -5 10 -8 18 -8 8 0 14 -4 14 -10 0 -5 4 -10 10 -10 5 0 26 -12 47 -26 132
-89 380 -177 568 -200 67 -9 308 -8 370 1 90 12 256 55 312 81 17 8 36 14 42
14 6 0 11 5 11 12 0 6 3 8 7 5 6 -6 190 87 203 102 3 3 32 24 65 46 58 39 253
225 288 275 9 14 36 52 60 85 128 184 217 417 245 645 12 101 6 410 -8 410 -3
0 -5 12 -5 26 2 23 -27 146 -42 184 -8 20 -8 20 -18 55 -18 70 -169 353 -205
385 -3 3 -17 21 -31 40 -39 53 -157 172 -214 216 -28 21 -57 45 -65 52 -35 30
-226 143 -250 147 -3 0 -41 15 -85 32 -165 64 -313 91 -505 91 -74 0 -171 -7
-215 -15z m285 -593 c0 -3 14 -5 32 -4 96 3 292 -79 387 -161 89 -78 145 -145
193 -235 90 -165 124 -343 105 -547 -37 -401 -325 -710 -697 -749 -36 -4 -69
-7 -75 -6 -219 12 -353 55 -483 155 -62 49 -142 130 -142 146 0 5 -4 11 -9 13
-14 5 -117 188 -106 188 3 0 -1 12 -8 28 -14 26 -30 88 -44 167 -9 50 -10 243
-2 310 22 168 120 369 238 483 48 47 135 112 149 112 7 0 12 5 12 10 0 6 9 10
20 10 11 0 20 5 20 10 0 6 8 10 18 10 10 0 22 4 27 8 23 19 95 38 184 48 31 3
57 7 58 8 5 5 123 1 123 -4z"/>
<path d="M399 5326 c-4 -44 -1 -104 5 -114 4 -7 4 -17 1 -23 -11 -16 -12 -69
-3 -75 5 -3 5 -10 1 -17 -8 -14 -8 -190 0 -204 4 -6 4 -19 0 -29 -6 -15 -8
-200 -3 -214 1 -3 1 -9 0 -15 -5 -24 -3 -135 2 -141 4 -3 4 -12 2 -19 -7 -17
-10 -105 -4 -105 3 0 5 -16 5 -35 0 -19 -2 -35 -5 -35 -8 0 -4 -195 4 -208 4
-7 4 -17 0 -23 -10 -16 -11 -179 -1 -179 5 0 6 -4 2 -9 -5 -9 -10 -165 -5
-186 1 -5 1 -14 0 -20 -4 -21 -3 -131 1 -140 5 -9 5 -24 -1 -42 -5 -21 -2
-191 4 -201 4 -7 4 -17 1 -23 -11 -16 -12 -69 -3 -75 5 -3 5 -10 1 -17 -8 -14
-8 -190 0 -204 4 -6 4 -19 0 -29 -6 -15 -8 -200 -3 -214 1 -3 1 -9 0 -15 -5
-24 -3 -135 2 -141 4 -3 4 -12 2 -19 -8 -21 -10 -105 -2 -105 4 0 5 -6 2 -13
-4 -11 54 -14 325 -14 326 0 329 0 333 21 2 12 3 234 3 494 l-1 472 46 0 c25
1 171 2 325 2 190 1 303 6 355 15 41 8 86 16 100 18 91 11 313 124 376 191 18
19 20 29 14 64 -14 75 -1 402 17 433 2 4 7 20 9 35 25 139 98 322 189 472 l37
61 -17 47 c-81 216 -231 384 -434 486 -54 28 -155 64 -201 72 -14 2 -38 7 -55
11 -16 3 -41 8 -55 11 -14 2 -328 5 -697 6 -479 2 -673 0 -674 -8z m1271 -578
c38 -10 98 -45 133 -77 37 -35 83 -115 91 -161 3 -14 5 -25 6 -25 4 0 9 -54
11 -105 5 -185 -93 -340 -237 -376 -16 -4 -158 -9 -316 -11 -225 -2 -288 0
-289 9 -1 7 -3 180 -3 384 l-2 372 296 -3 c162 -2 302 -5 310 -7z"/>
<path d="M5090 5006 l0 -329 50 -101 c51 -104 114 -282 105 -296 -3 -5 -1 -11
4 -14 5 -3 12 -27 15 -53 4 -27 10 -61 14 -78 8 -39 7 -376 -2 -440 -4 -27
-14 -79 -22 -115 -9 -36 -17 -74 -20 -85 -8 -40 -56 -177 -83 -238 l-28 -62
19 -55 c10 -30 21 -62 24 -70 3 -8 5 -16 5 -17 0 -2 14 -29 31 -60 127 -235
308 -394 557 -492 47 -18 94 -35 105 -37 12 -2 32 -6 46 -9 14 -3 36 -7 50
-10 14 -4 39 -9 55 -12 17 -4 100 -7 185 -6 139 0 167 3 276 30 204 51 372
144 508 278 73 71 79 79 143 175 69 103 133 279 150 411 3 24 6 487 7 1029 l1
985 -331 1 -330 0 0 -990 1 -991 -23 -60 c-68 -171 -224 -267 -426 -261 -207
6 -362 116 -415 296 -7 25 -17 54 -21 65 -4 12 -8 435 -9 940 0 506 0 938 -1
961 l0 40 -320 0 -320 0 0 -330z"/>
<path d="M7379 5301 c0 -46 0 -2864 0 -2872 1 -7 626 -10 651 -3 13 3 15 69
15 511 l0 508 60 1 c47 1 65 -3 83 -19 12 -11 22 -26 22 -34 0 -7 3 -13 8 -13
4 0 23 -27 42 -60 19 -33 38 -60 43 -60 4 0 7 -4 7 -10 0 -5 17 -35 39 -67
110 -165 161 -243 161 -248 0 -3 5 -11 11 -18 5 -7 78 -115 160 -241 82 -127
154 -235 160 -242 7 -9 108 -12 393 -12 l384 0 -32 47 c-17 25 -52 75 -76 111
-25 36 -49 70 -55 77 -5 6 -25 33 -43 60 -18 26 -75 107 -125 178 -51 72 -103
147 -117 167 -14 21 -28 38 -32 38 -5 0 -8 5 -8 10 0 10 -37 68 -51 80 -5 4
-64 89 -109 155 -8 12 -32 46 -52 76 -21 30 -38 57 -38 61 0 3 15 10 33 13 53
12 174 71 240 119 53 37 89 71 178 164 21 23 89 118 89 125 0 4 13 29 30 57
16 27 27 50 25 50 -3 0 3 17 13 38 17 33 43 127 57 207 7 39 7 198 0 250 -5
38 -9 59 -20 113 -44 203 -164 397 -326 526 -25 20 -51 36 -58 36 -6 0 -11 4
-11 9 0 17 -196 99 -275 115 -5 1 -23 5 -40 9 -16 4 -43 9 -60 13 -16 4 -333
7 -702 9 l-673 2 -1 -36z m1226 -558 c145 -48 242 -158 271 -308 6 -32 7 -140
1 -165 -30 -124 -117 -225 -234 -271 -54 -21 -76 -23 -329 -27 l-271 -4 2 394
c1 216 3 394 3 394 9 7 535 -6 557 -13z"/>
<path d="M10089 2862 c-51 -27 -71 -41 -118 -82 -39 -35 -81 -100 -99 -155
-33 -99 -13 -177 61 -240 68 -58 166 -70 248 -31 63 30 162 134 203 214 53
103 4 247 -103 298 -64 31 -128 30 -192 -4z"/>
</g>
</svg>
