<svg id="Calque_1" data-name="Calque 1" xmlns="http://www.w3.org/2000/svg" viewBox="0 0 1920 1080"><defs><style>.cls-1{fill:#fff;}</style></defs><path class="cls-1" d="M325.18,200.59h57.48V426.65h63v52.76H325.18Z"/><path class="cls-1" d="M431.7,200.59h56.19v52.76L431.7,300.54Z"/><path class="cls-1" d="M648.17,200.59V424.07c0,35.61-16.3,55.34-47.61,55.34H549.94c-28.31,0-46.75-18.45-46.75-54.48V200.59h57.05V426.65h30.45V200.59Z"/><path class="cls-1" d="M745.83,479.41l-20.59-82.79c-6.86-24.88-14.58-72.06-21.45-115.39,1.72,39.9,3.43,81.07,3.43,101.24v96.94H660V200.59H727l24.88,104.24c8.14,31.74,17.15,81.5,24.45,121.82-2.58-35.61-5.15-74.64-5.15-100.81V200.59h47.18V479.41Z"/><path class="cls-1" d="M833.05,200.59h57.48V479.41H833.05Z"/><path class="cls-1" d="M903.25,424.93V256.78c0-35.17,17.59-56.19,46.76-56.19h49.33c33.89,0,49.33,21,49.33,57V424.07c0,35.61-16.3,55.34-47.61,55.34H950C921.7,479.41,903.25,461,903.25,424.93Zm88.37,1.72V253.78H960.31V426.65Z"/><path class="cls-1" d="M1148.76,479.41l-20.59-82.79c-6.87-24.88-14.59-72.06-21.45-115.39,1.71,39.9,3.43,81.07,3.43,101.24v96.94H1063V200.59h66.91l24.88,104.24c8.15,31.74,17.16,81.5,24.45,121.82-2.57-35.61-5.15-74.64-5.15-100.81V200.59h47.19V479.41Z"/><path class="cls-1" d="M325.18,495H431.56c30,0,36,18.45,36,51.9v112c0,26.17-9.87,48.9-41.61,48.9H382.66v66.06H325.18ZM410.11,655.4V548.16H382.66V655.4Z"/><path class="cls-1" d="M476,719.31V551.16C476,516,493.61,495,522.78,495h49.33c33.88,0,49.33,21,49.33,57V718.45c0,35.61-16.3,55.34-47.62,55.34h-51C494.47,773.79,476,755.34,476,719.31ZM564.39,721V548.16H533.07V721Z"/><path class="cls-1" d="M636.73,495H743.11c30,0,36,18.45,36,51.9v112c0,26.17-9.87,48.9-41.61,48.9H694.21v66.06H636.73ZM721.67,655.4V548.16H694.21V655.4Z"/><path class="cls-1" d="M933.56,495V718.45c0,35.61-16.3,55.34-47.61,55.34H835.33c-28.31,0-46.75-18.45-46.75-54.48V495h57V721h30.46V495Z"/><path class="cls-1" d="M1187.5,495H1086.7L1062.7,721h-58.79V495H946.43V773.79H1115l4.29-51.47h34.32l4.28,51.47h57.91Zm-63.91,175.87,9.86-122.25h6.44l9.86,122.25Z"/><path class="cls-1" d="M1221.39,495h57.48V773.79h-57.48Z"/><path class="cls-1" d="M1292.16,773.79V495h106c26.59,0,36.89,14.59,36.89,51v91.36c0,26.17-5.58,40.75-19.31,46.76l23.59,89.65h-57.47l-21.45-83.22h-10.73v83.22Zm86.22-135.55V548.16h-28.74v90.08Z"/><path class="cls-1" d="M1447.16,495h119.68v53.19h-62.2v60.91h45V661.4h-45V721h62.2v52.76H1447.16Z"/><path class="cls-1" d="M1631.07,835.11H259.79V137.78H1631.07ZM278.79,819.3H1612.07V153.6H278.79Z"/></svg>