<svg xmlns="http://www.w3.org/2000/svg" width="140" height="92" viewBox="0 0 140 92" fill="none"><path d="M83.0585 49.2908H82.7909V74.1018C82.0244 76.9559 79.719 78.1131 77.376 78.1131C74.4603 78.1131 71.6459 76.3772 71.6459 71.9219V49.2908H63.619V57.5997C65.2779 60.4153 66.1514 63.6242 66.1486 66.8923C66.1486 69.9618 65.3878 73.4509 64.0457 76.0055C65.6019 82.081 71.2134 85.7335 77.3804 85.7335C79.23 85.7383 81.0644 85.4004 82.7909 84.7368C87.0358 83.0906 90.2928 79.4786 90.9624 74.4664C91.0203 74.0324 91.0583 73.5883 91.0767 73.1341C91.0853 72.9345 91.0897 72.7334 91.0897 72.5309V49.2908H83.0585Z" fill="#571AFF"></path><path d="M31.6605 57.2829C30.2836 52.8753 26.5276 49.2878 20.0035 49.2878H4.98962V85.719H13.2898V73.3467H20.0035C23.7508 73.3467 26.5855 72.1822 28.5799 70.3581C28.4576 69.4956 28.3963 68.6255 28.3962 67.7544C28.39 64.0124 29.5291 60.3582 31.6605 57.2829ZM19.6332 66.1068H13.2898V56.5321H19.6853C22.7514 56.5321 23.9142 59.0173 23.9142 61.3448C23.9142 63.6722 22.7514 66.1068 19.6332 66.1068Z" fill="#571AFF"></path><path d="M62.7237 58.0339C59.5867 52.712 53.8595 49.1116 47.2934 49.1116C44.3909 49.1063 41.5308 49.8081 38.9605 51.1565C36.3901 52.505 34.1869 54.4593 32.5413 56.8506C30.4102 59.9276 29.2716 63.5833 29.2785 67.3264C29.2788 68.1975 29.3396 69.0676 29.4607 69.9302C30.7103 78.702 38.1109 85.5919 47.2934 85.5919C54.1632 85.5919 60.1262 81.6197 63.1446 75.8639C64.5959 73.1011 65.3183 70.0136 65.2437 66.8935C65.169 63.7735 64.2997 60.7241 62.7179 58.0339H62.7237ZM47.2485 78.0207C41.3188 78.0207 37.3762 73.211 37.3762 67.3264C37.3762 61.4419 41.3144 56.6842 47.2485 56.6842C53.132 56.6842 57.1729 61.4419 57.1729 67.3264C57.1729 73.211 53.1305 78.0207 47.2471 78.0207H47.2485Z" fill="#571AFF"></path><path d="M110.577 85.7205L102.225 72.9258H100.532V85.7205H92.2336V49.2908H107.14C115.598 49.2908 119.405 55.3185 119.405 61.3462C119.405 66.4757 115.598 71.3925 110.894 72.4499L120.251 85.7205H110.577ZM100.532 56.535V66.3715H105.819C109.466 66.3715 111.053 63.992 111.053 61.5589C111.053 59.1258 109.414 56.5365 106.031 56.5365L100.532 56.535Z" fill="#571AFF"></path><path d="M47.2471 8.87738V5.03247H43.1469V15.2465L37.4008 5.03247H33.6405V23.0303H37.7479V12.6861L43.6502 23.0303H47.2543V19.1666C46.2577 17.636 45.7271 15.8486 45.7271 14.022C45.7271 12.1953 46.2577 10.408 47.2543 8.87738H47.2471Z" fill="#571AFF"></path><path d="M79.2721 17.7664H83.3723C83.3723 18.9237 84.5207 19.8046 85.9308 19.8046C87.2628 19.8046 88.2824 19.1247 88.2824 17.9501C88.2824 17.2442 87.8905 16.5918 86.2967 16.0696L84.1562 15.4172C80.1861 14.3468 79.4283 11.9166 79.4283 10.2198C79.4283 6.98101 82.1965 4.7085 85.7746 4.7085C89.2225 4.7085 91.8591 6.77126 91.8591 10.2719H87.7589C87.7589 9.20001 87.1066 8.28579 85.6965 8.28579C84.4165 8.28579 83.5806 9.15372 83.5806 10.1403C83.5806 10.5062 83.6847 11.3163 85.3566 11.7864L87.2368 12.3867C89.7967 13.1708 92.4087 14.477 92.4087 17.7389C92.4087 21.6055 89.0649 23.3284 85.7746 23.3284C81.9362 23.3298 79.2721 21.0833 79.2721 17.7664Z" fill="#571AFF"></path><path d="M63.6523 9.41555C62.8513 8.03639 61.7037 6.8907 60.3233 6.09215C58.9429 5.29361 57.3777 4.86997 55.7831 4.86328C50.6416 4.86328 46.5963 9.06548 46.5963 14.1544C46.5963 19.2433 50.6459 23.473 55.7831 23.473C59.2874 23.473 62.329 21.4479 63.8692 18.5099C64.6092 17.1007 64.9776 15.5259 64.9396 13.9346C64.9017 12.3433 64.4586 10.7879 63.6523 9.41555ZM55.7571 19.6108C52.73 19.6108 50.7197 17.1516 50.7197 14.1544C50.7197 11.1572 52.73 8.72555 55.7571 8.72555C58.7581 8.72555 60.819 11.1528 60.819 14.1544C60.819 17.156 58.7581 19.6108 55.7571 19.6108Z" fill="#571AFF"></path><path d="M74.4097 5.17578H74.2738V17.5379C73.8833 18.9845 72.7075 19.5848 71.5143 19.5848C70.026 19.5848 68.5913 18.6966 68.5913 16.4255V5.17578H64.494V9.41559C65.3003 10.788 65.7434 12.3433 65.7813 13.9347C65.8193 15.526 65.4509 17.1007 64.711 18.51C65.505 21.6114 68.3686 23.4731 71.5085 23.4731C72.4519 23.476 73.3877 23.3033 74.268 22.9639C76.4374 22.1249 78.0949 20.282 78.4362 17.726C78.4665 17.5046 78.4853 17.279 78.4955 17.0461C78.4955 16.9448 78.4955 16.8421 78.4955 16.7394V5.17578H74.4097Z" fill="#571AFF"></path><path d="M90.5228 41.3132H97.9523V44.7762H86.5527V27.3584H97.7253V30.8301H90.5228V34.4132H96.8401V37.976H90.5228V41.3132Z" fill="#571AFF"></path><path d="M99.0934 39.6946H103.062C103.062 40.8084 104.174 41.6662 105.539 41.6662C106.828 41.6662 107.814 41.0095 107.814 39.8711C107.814 39.1897 107.436 38.559 105.894 38.0513L103.82 37.4206C99.9785 36.3849 99.2467 34.0314 99.2467 32.3896C99.2467 29.2549 101.925 27.0562 105.388 27.0562C108.724 27.0562 111.277 29.0524 111.277 32.4402H107.314C107.314 31.403 106.683 30.5177 105.318 30.5177C104.079 30.5177 103.27 31.3538 103.27 32.3129C103.27 32.6673 103.371 33.4513 104.988 33.9041L106.809 34.4827C109.287 35.2407 111.813 36.5079 111.813 39.6642C111.813 43.4064 108.578 45.0743 105.393 45.0743C101.674 45.0801 99.0934 42.9059 99.0934 39.6946Z" fill="#571AFF"></path><path d="M83.6601 27.4033H80.2714L75.263 38.3059L70.1778 27.4033H66.8644L65.7898 36.1231L65.3415 39.7539L65.3169 39.9535L65.9113 44.8341H66.8514H68.788L69.9508 34.9412L73.7444 42.835H76.7801L80.5752 34.9167L81.7134 44.8341H85.7861L83.6601 27.4033Z" fill="#571AFF"></path><path d="M64.5967 39.9535L63.068 27.4019H59.6779L54.6695 38.3073L49.5858 27.4019H46.2723L45.4321 34.2006C45.8335 36.1859 45.5797 38.2478 44.7089 40.0764L44.1304 44.7719L44.1232 44.8298H48.1959L49.3529 34.9369L53.148 42.8307H56.1852L59.9788 34.9123L61.117 44.8298H65.1897L64.5967 39.9535Z" fill="#571AFF"></path><path d="M25.6397 37.3829C25.6079 37.1573 25.5833 36.9287 25.5674 36.6987C24.5998 35.6123 23.1217 34.9845 21.6624 34.5376L19.8415 33.959C18.2217 33.5047 18.1205 32.7193 18.1205 32.3678C18.1205 31.4073 18.9304 30.5726 20.1698 30.5726C21.5351 30.5726 22.1686 31.4579 22.1686 32.4951H26.1386C26.1386 29.1044 23.5845 27.1067 20.2451 27.1067C16.774 27.1067 14.0984 29.3069 14.0984 32.4444C14.0984 34.0891 14.8331 36.4412 18.6773 37.4784L20.7512 38.112C22.2944 38.6168 22.6734 39.2504 22.6734 39.9332C22.6734 41.0716 21.687 41.7298 20.3969 41.7298C19.0316 41.7298 17.918 40.8691 17.918 39.7552H13.9436C13.9436 42.9622 16.5238 45.132 20.2479 45.132C23.2244 45.132 26.2442 43.6754 26.6304 40.4322C26.4858 40.1588 26.3556 39.8782 26.2384 39.5889C25.9497 38.8807 25.7486 38.1399 25.6397 37.3829Z" fill="#571AFF"></path><path d="M44.5685 34.2049C44.3643 33.1856 43.9908 32.2077 43.4636 31.3118C42.6624 29.9329 41.5147 28.7875 40.1343 27.9892C38.754 27.1909 37.1889 26.7675 35.5944 26.761C30.4528 26.761 26.4076 30.9632 26.4076 36.0536C26.4076 36.2691 26.4163 36.4875 26.4307 36.6973C26.4452 36.907 26.4712 37.1558 26.503 37.3815C26.6096 38.1402 26.8088 38.883 27.096 39.5932C27.2132 39.8826 27.3448 40.1632 27.488 40.4366C28.2582 41.9224 29.4214 43.1682 30.8508 44.0383C32.2802 44.9083 33.921 45.3692 35.5944 45.3707C39.0987 45.3707 42.1402 43.3456 43.6805 40.4077C43.7369 40.2992 43.7919 40.1892 43.844 40.0793C44.7147 38.2506 44.9685 36.1887 44.5671 34.2034L44.5685 34.2049ZM35.5683 41.5157C32.5413 41.5157 30.5309 39.0566 30.5309 36.0608C30.5309 33.065 32.5413 30.6319 35.5683 30.6319C38.5694 30.6319 40.6303 33.0592 40.6303 36.0608C40.6303 39.0624 38.5694 41.5157 35.5683 41.5157Z" fill="#571AFF"></path><path d="M128.261 76.3933L127.012 76.3369C126.785 76.3266 126.563 76.2666 126.362 76.1612C126.16 76.0557 125.984 75.9073 125.846 75.7265C125.709 75.5457 125.612 75.3368 125.564 75.1146C125.515 74.8924 125.516 74.6623 125.566 74.4405L128.372 47.406C128.394 47.3048 128.407 47.2016 128.41 47.0979L129.62 36.0073C129.63 35.595 129.803 35.2034 130.101 34.9186C130.4 34.6338 130.799 34.4791 131.211 34.4884L135.229 34.5969C135.436 34.6024 135.64 34.6494 135.829 34.735C136.018 34.8207 136.188 34.9433 136.329 35.0956C136.47 35.2479 136.579 35.4269 136.649 35.622C136.72 35.8171 136.751 36.0243 136.74 36.2315L134.922 47.4842C134.915 47.6148 134.892 47.7441 134.853 47.8689L129.814 75.304C129.712 75.6317 129.504 75.9163 129.223 76.1134C128.942 76.3104 128.603 76.4089 128.261 76.3933Z" fill="#E93A55"></path><path d="M127.429 79.865C127.054 79.8458 126.68 79.922 126.343 80.0863C125.449 80.5202 123.67 81.6124 123.252 83.6332C123.169 83.9888 123.164 84.358 123.237 84.7157C123.31 85.0734 123.459 85.4112 123.674 85.7061C124.643 87.0629 126.578 87.2669 127.869 86.2109C128.652 85.5927 129.301 84.8221 129.778 83.9456C130.69 82.1678 129.488 80.0053 127.501 79.8693L127.429 79.865Z" fill="#E93A55"></path></svg>